<svg width="19" height="22" viewBox="0 0 19 22" fill="none" xmlns="http://www.w3.org/2000/svg">
<path d="M0.5 1H18.5488M1.76013 1.05055V20.6022L4.40009 18.2959L6.95656 20.6154L9.56558 18.2959L12.0471 20.6154L14.6445 18.2959L17.371 20.6154V1L1.76013 1.05055Z" stroke="#FFC400" stroke-width="2" stroke-linejoin="round"/>
<path d="M13.6 8H5.60001C5.04772 8 4.60001 8.44772 4.60001 9C4.60001 9.55228 5.04772 10 5.60001 10H13.6C14.1523 10 14.6 9.55228 14.6 9C14.6 8.44772 14.1523 8 13.6 8Z" fill="#FFC400"/>
<path d="M13.6 12H5.60001C5.04772 12 4.60001 12.4477 4.60001 13C4.60001 13.5523 5.04772 14 5.60001 14H13.6C14.1523 14 14.6 13.5523 14.6 13C14.6 12.4477 14.1523 12 13.6 12Z" fill="#FFC400"/>
<path d="M7.60001 4H5.60001C5.04772 4 4.60001 4.44772 4.60001 5C4.60001 5.55228 5.04772 6 5.60001 6H7.60001C8.15229 6 8.60001 5.55228 8.60001 5C8.60001 4.44772 8.15229 4 7.60001 4Z" fill="#FFC400"/>
</svg>
