<svg width="24" height="24" viewBox="0 0 24 24" fill="none" xmlns="http://www.w3.org/2000/svg">
<path fill-rule="evenodd" clip-rule="evenodd" d="M21.3351 4.31341L13.3351 0.313408C12.4941 -0.104469 11.506 -0.104469 10.6651 0.313408L2.66286 4.31451C1.64559 4.82 1.00068 5.85999 1.00007 6.99841L1.00007 16.5189C0.99216 17.6524 1.63159 18.6988 2.6501 19.212L10.6529 23.2134C11.4976 23.6361 12.4925 23.6361 13.3376 23.2132L21.3373 19.2134C22.3546 18.7079 22.9995 17.6679 23.0001 16.5295V6.99894C22.9995 5.85999 22.3546 4.82 21.3351 4.31341ZM12.0001 9.64091L4.24114 5.76144L11.5573 2.10337C11.8351 1.96533 12.164 1.96518 12.4442 2.10401L19.759 5.76144L12.0001 9.64091ZM13.0001 11.377L21.0001 7.37697L21.0001 16.5289C20.9999 16.9079 20.7849 17.2545 20.4451 17.4234L13.0001 21.1459V11.377ZM11.0001 11.377L3.00007 7.37697L3.00005 16.5259C2.9974 16.9061 3.21054 17.2548 3.54729 17.4245L11.0001 21.1509V11.377Z" fill="black"/>
<mask id="mask0" mask-type="alpha" maskUnits="userSpaceOnUse" x="1" y="0" width="22" height="24">
<path fill-rule="evenodd" clip-rule="evenodd" d="M21.3351 4.31341L13.3351 0.313408C12.4941 -0.104469 11.506 -0.104469 10.6651 0.313408L2.66286 4.31451C1.64559 4.82 1.00068 5.85999 1.00007 6.99841L1.00007 16.5189C0.99216 17.6524 1.63159 18.6988 2.6501 19.212L10.6529 23.2134C11.4976 23.6361 12.4925 23.6361 13.3376 23.2132L21.3373 19.2134C22.3546 18.7079 22.9995 17.6679 23.0001 16.5295V6.99894C22.9995 5.85999 22.3546 4.82 21.3351 4.31341ZM12.0001 9.64091L4.24114 5.76144L11.5573 2.10337C11.8351 1.96533 12.164 1.96518 12.4442 2.10401L19.759 5.76144L12.0001 9.64091ZM13.0001 11.377L21.0001 7.37697L21.0001 16.5289C20.9999 16.9079 20.7849 17.2545 20.4451 17.4234L13.0001 21.1459V11.377ZM11.0001 11.377L3.00007 7.37697L3.00005 16.5259C2.9974 16.9061 3.21054 17.2548 3.54729 17.4245L11.0001 21.1509V11.377Z" fill="white"/>
</mask>
<g mask="url(#mask0)">
<rect width="24" height="24" fill="#5D70C7"/>
</g>
</svg>
