<svg width="24" height="24" viewBox="0 0 24 24" fill="none" xmlns="http://www.w3.org/2000/svg">
<path fill-rule="evenodd" clip-rule="evenodd" d="M1.70711 5.29289L8.5 12.0858L12.7929 7.79289C13.1834 7.40237 13.8166 7.40237 14.2071 7.79289L22 15.5858V12C22 11.4477 22.4477 11 23 11C23.5523 11 24 11.4477 24 12V17.998C24 18.0038 24 18.0097 23.9999 18.0155C23.9979 18.1448 23.9714 18.2683 23.9247 18.3813C23.8763 18.4989 23.8045 18.6092 23.7092 18.705C23.7078 18.7064 23.7064 18.7078 23.705 18.7092C23.51 18.9031 23.255 19 23 19C22.9998 19 22.9995 19 22.9993 19H17C16.4477 19 16 18.5523 16 18C16 17.4477 16.4477 17 17 17H20.5858L13.5 9.91421L9.20711 14.2071C8.81658 14.5976 8.18342 14.5976 7.79289 14.2071L0.292893 6.70711C-0.0976311 6.31658 -0.0976311 5.68342 0.292893 5.29289C0.683418 4.90237 1.31658 4.90237 1.70711 5.29289Z" fill="black"/>
<mask id="mask0" mask-type="alpha" maskUnits="userSpaceOnUse" x="0" y="5" width="24" height="14">
<path fill-rule="evenodd" clip-rule="evenodd" d="M1.70711 5.29289L8.5 12.0858L12.7929 7.79289C13.1834 7.40237 13.8166 7.40237 14.2071 7.79289L22 15.5858V12C22 11.4477 22.4477 11 23 11C23.5523 11 24 11.4477 24 12V17.998C24 18.0038 24 18.0097 23.9999 18.0155C23.9979 18.1448 23.9714 18.2683 23.9247 18.3813C23.8763 18.4989 23.8045 18.6092 23.7092 18.705C23.7078 18.7064 23.7064 18.7078 23.705 18.7092C23.51 18.9031 23.255 19 23 19C22.9998 19 22.9995 19 22.9993 19H17C16.4477 19 16 18.5523 16 18C16 17.4477 16.4477 17 17 17H20.5858L13.5 9.91421L9.20711 14.2071C8.81658 14.5976 8.18342 14.5976 7.79289 14.2071L0.292893 6.70711C-0.0976311 6.31658 -0.0976311 5.68342 0.292893 5.29289C0.683418 4.90237 1.31658 4.90237 1.70711 5.29289Z" fill="white"/>
</mask>
<g mask="url(#mask0)">
<rect width="24" height="24" fill="#B475E4"/>
</g>
</svg>
