<svg width="24" height="24" viewBox="0 0 24 24" fill="none" xmlns="http://www.w3.org/2000/svg">
<path fill-rule="evenodd" clip-rule="evenodd" d="M10.22 22.1292C10.8111 22.4987 11.2759 22.756 11.5528 22.8944C11.8343 23.0352 12.1657 23.0352 12.4472 22.8944C12.7241 22.756 13.1889 22.4987 13.78 22.1292C14.7601 21.5167 15.7401 20.8062 16.6585 20.0026C19.3542 17.6438 21 14.9694 21 12V4C21 3.54113 20.6877 3.14115 20.2425 3.02986L12.2425 1.02986C12.0833 0.990048 11.9167 0.990048 11.7575 1.02986L3.75746 3.02986C3.3123 3.14115 3 3.54113 3 4V12C3 14.9694 4.64576 17.6438 7.3415 20.0026C8.25994 20.8062 9.23988 21.5167 10.22 22.1292ZM15.3415 18.4974C14.5099 19.225 13.6149 19.8739 12.72 20.4333C12.4629 20.594 12.2214 20.7373 12 20.8628C11.7786 20.7373 11.5371 20.594 11.28 20.4333C10.3851 19.8739 9.49006 19.225 8.6585 18.4974C6.35424 16.4812 5 14.2806 5 12V4.78078L12 3.03078L19 4.78078V12C19 14.2806 17.6458 16.4812 15.3415 18.4974Z" fill="black"/>
<mask id="mask0" mask-type="alpha" maskUnits="userSpaceOnUse" x="3" y="1" width="18" height="22">
<path fill-rule="evenodd" clip-rule="evenodd" d="M10.22 22.1292C10.8111 22.4987 11.2759 22.756 11.5528 22.8944C11.8343 23.0352 12.1657 23.0352 12.4472 22.8944C12.7241 22.756 13.1889 22.4987 13.78 22.1292C14.7601 21.5167 15.7401 20.8062 16.6585 20.0026C19.3542 17.6438 21 14.9694 21 12V4C21 3.54113 20.6877 3.14115 20.2425 3.02986L12.2425 1.02986C12.0833 0.990048 11.9167 0.990048 11.7575 1.02986L3.75746 3.02986C3.3123 3.14115 3 3.54113 3 4V12C3 14.9694 4.64576 17.6438 7.3415 20.0026C8.25994 20.8062 9.23988 21.5167 10.22 22.1292ZM15.3415 18.4974C14.5099 19.225 13.6149 19.8739 12.72 20.4333C12.4629 20.594 12.2214 20.7373 12 20.8628C11.7786 20.7373 11.5371 20.594 11.28 20.4333C10.3851 19.8739 9.49006 19.225 8.6585 18.4974C6.35424 16.4812 5 14.2806 5 12V4.78078L12 3.03078L19 4.78078V12C19 14.2806 17.6458 16.4812 15.3415 18.4974Z" fill="white"/>
</mask>
<g mask="url(#mask0)">
<rect width="24" height="24" fill="white"/>
<rect width="24" height="24" fill="#0293E3"/>
</g>
</svg>
