<svg width="24" height="24" viewBox="0 0 24 24" fill="none" xmlns="http://www.w3.org/2000/svg">
<path fill-rule="evenodd" clip-rule="evenodd" d="M3.5 7C3.5 9.76142 5.73858 12 8.5 12C11.2614 12 13.5 9.76142 13.5 7C13.5 4.23858 11.2614 2 8.5 2C5.73858 2 3.5 4.23858 3.5 7ZM17 19V21C17 21.5523 16.5523 22 16 22C15.4477 22 15 21.5523 15 21V19C15 17.3431 13.6569 16 12 16H5C3.34315 16 2 17.3431 2 19V21C2 21.5523 1.55228 22 1 22C0.447715 22 0 21.5523 0 21V19C0 16.2386 2.23858 14 5 14H12C14.7614 14 17 16.2386 17 19ZM8.5 10C10.1569 10 11.5 8.65685 11.5 7C11.5 5.34315 10.1569 4 8.5 4C6.84315 4 5.5 5.34315 5.5 7C5.5 8.65685 6.84315 10 8.5 10ZM16.2929 10.2929C16.6834 9.90237 17.3166 9.90237 17.7071 10.2929L19 11.5858L22.2929 8.29289C22.6834 7.90237 23.3166 7.90237 23.7071 8.29289C24.0976 8.68342 24.0976 9.31658 23.7071 9.70711L19.7071 13.7071C19.3166 14.0976 18.6834 14.0976 18.2929 13.7071L16.2929 11.7071C15.9024 11.3166 15.9024 10.6834 16.2929 10.2929Z" fill="black"/>
<mask id="mask0" mask-type="alpha" maskUnits="userSpaceOnUse" x="0" y="2" width="24" height="20">
<path fill-rule="evenodd" clip-rule="evenodd" d="M3.5 7C3.5 9.76142 5.73858 12 8.5 12C11.2614 12 13.5 9.76142 13.5 7C13.5 4.23858 11.2614 2 8.5 2C5.73858 2 3.5 4.23858 3.5 7ZM17 19V21C17 21.5523 16.5523 22 16 22C15.4477 22 15 21.5523 15 21V19C15 17.3431 13.6569 16 12 16H5C3.34315 16 2 17.3431 2 19V21C2 21.5523 1.55228 22 1 22C0.447715 22 0 21.5523 0 21V19C0 16.2386 2.23858 14 5 14H12C14.7614 14 17 16.2386 17 19ZM8.5 10C10.1569 10 11.5 8.65685 11.5 7C11.5 5.34315 10.1569 4 8.5 4C6.84315 4 5.5 5.34315 5.5 7C5.5 8.65685 6.84315 10 8.5 10ZM16.2929 10.2929C16.6834 9.90237 17.3166 9.90237 17.7071 10.2929L19 11.5858L22.2929 8.29289C22.6834 7.90237 23.3166 7.90237 23.7071 8.29289C24.0976 8.68342 24.0976 9.31658 23.7071 9.70711L19.7071 13.7071C19.3166 14.0976 18.6834 14.0976 18.2929 13.7071L16.2929 11.7071C15.9024 11.3166 15.9024 10.6834 16.2929 10.2929Z" fill="white"/>
</mask>
<g mask="url(#mask0)">
<rect width="24" height="24" fill="#F86C6C"/>
</g>
</svg>
