<svg width="24" height="24" viewBox="0 0 24 24" fill="none" xmlns="http://www.w3.org/2000/svg">
<path fill-rule="evenodd" clip-rule="evenodd" d="M12 23C5.92487 23 1 18.0751 1 12C1 5.92487 5.92487 1 12 1C18.0751 1 23 5.92487 23 12C23 18.0751 18.0751 23 12 23ZM12 21C16.9706 21 21 16.9706 21 12C21 7.02944 16.9706 3 12 3C7.02944 3 3 7.02944 3 12C3 16.9706 7.02944 21 12 21ZM11.568 17.296H12.792V16C14.232 15.772 15.024 14.752 15.024 13.648C15.024 12.568 14.34 11.668 12.828 11.332L11.736 11.08C11.172 10.96 10.908 10.648 10.908 10.276C10.908 9.784 11.328 9.34 12.096 9.34C13.08 9.34 13.392 10.036 13.464 10.456L14.94 10.036C14.772 9.232 14.172 8.272 12.792 8.02V6.7H11.568V7.984C10.284 8.188 9.3 9.124 9.3 10.396C9.3 11.548 10.104 12.364 11.4 12.652L12.504 12.892C13.104 13.024 13.404 13.336 13.404 13.744C13.404 14.272 12.948 14.644 12.168 14.644C11.064 14.644 10.56 13.948 10.488 13.192L9 13.552C9.108 14.572 9.9 15.784 11.568 16.012V17.296Z" fill="black"/>
<mask id="mask0" mask-type="alpha" maskUnits="userSpaceOnUse" x="1" y="1" width="22" height="22">
<path fill-rule="evenodd" clip-rule="evenodd" d="M12 23C5.92487 23 1 18.0751 1 12C1 5.92487 5.92487 1 12 1C18.0751 1 23 5.92487 23 12C23 18.0751 18.0751 23 12 23ZM12 21C16.9706 21 21 16.9706 21 12C21 7.02944 16.9706 3 12 3C7.02944 3 3 7.02944 3 12C3 16.9706 7.02944 21 12 21ZM11.568 17.296H12.792V16C14.232 15.772 15.024 14.752 15.024 13.648C15.024 12.568 14.34 11.668 12.828 11.332L11.736 11.08C11.172 10.96 10.908 10.648 10.908 10.276C10.908 9.784 11.328 9.34 12.096 9.34C13.08 9.34 13.392 10.036 13.464 10.456L14.94 10.036C14.772 9.232 14.172 8.272 12.792 8.02V6.7H11.568V7.984C10.284 8.188 9.3 9.124 9.3 10.396C9.3 11.548 10.104 12.364 11.4 12.652L12.504 12.892C13.104 13.024 13.404 13.336 13.404 13.744C13.404 14.272 12.948 14.644 12.168 14.644C11.064 14.644 10.56 13.948 10.488 13.192L9 13.552C9.108 14.572 9.9 15.784 11.568 16.012V17.296Z" fill="white"/>
</mask>
<g mask="url(#mask0)">
<rect width="24" height="24" fill="#93D978"/>
</g>
</svg>
